<?xml version="1.0" encoding="utf-8"?>
<!-- Generator: Adobe Illustrator 27.0.1, SVG Export Plug-In . SVG Version: 6.00 Build 0)  -->
<svg version="1.1" id="Layer_1" xmlns="http://www.w3.org/2000/svg" xmlns:xlink="http://www.w3.org/1999/xlink" x="0px" y="0px"
	 width="375px" height="44px" viewBox="0 0 375 44" style="enable-background:new 0 0 375 44;" xml:space="preserve">
<style type="text/css">
	.st0{fill:#006FCF;}
	.st1{fill:#FFFFFF;}
	.st2{fill:#FF5F00;}
	.st3{fill:#EB001B;}
	.st4{fill:#F79E1B;}
	.st5{fill:#1A1F71;}
	.st6{fill:#FFB3C7;}
	.st7{fill:#0A0B09;}
	.st8{fill:#253B80;}
	.st9{fill:#179BD7;}
	.st10{fill:#222D65;}
	.st11{fill:#B1FBE3;}
</style>
<g id="Group_3377_00000056422181404364099670000017535777184876692617_" transform="translate(127)">
	
		<rect id="Rectangle_17602_00000097465953577109581720000008104108121026217407_" x="12.2" y="8.1" class="st0" width="45" height="28.3"/>
	<g id="Group_3375_00000124882346865152284230000018129100120969985185_">
		<g id="Group_3374_00000169519383363060793530000007556736554027621809_">
			<path id="Path_5216_00000010274607038688393320000009821387185784582529_" class="st1" d="M15.7,21.2l0.4-1h1.1l0.4,1h15.7v-1
				l0.8,1h4.2v-0.7c0.6,0.5,1.3,0.7,2.1,0.7H43l0.4-1h1.1l0.4,1H49V20l0.7,1.2h2.8v-6.5h-2.8v1.2L49,14.7h-2.8v2l-0.9-2h-4.8
				c-0.8,0-1.6,0.2-2.2,0.7v-0.7h-15l-0.5,1.5l-0.6-1.5h-3.4v2l-0.9-2h-2.7L13.8,18v3.2C13.9,21.2,15.7,21.2,15.7,21.2z"/>
			<path id="Path_5217_00000034067188761100501160000000696128763546777246_" class="st1" d="M30.2,23.2l-0.7,1l-0.7-1h-6.9v6.5h6.9
				l0.7-1l0.8,1h4.1v-1.5h1c0.4,0,0.8-0.1,1.2-0.3v1.8h2.7v-1l0.8,1l0,0h13.8c0.5,0,1-0.1,1.4-0.4v-6.1H30.2z"/>
		</g>
		<path id="Path_5218_00000119100549276683328070000000755541581751205265_" class="st0" d="M54.8,25.1l0.5-1.1h-2.6
			c-0.8-0.1-1.6,0.5-1.7,1.4c0,0.1,0,0.1,0,0.2c0,0.8,0.5,1.4,1.3,1.5c0.1,0,0.1,0,0.2,0h1.2c0.2,0,0.4,0.1,0.4,0.4l0,0
			c0,0.2-0.2,0.4-0.4,0.4c0,0,0,0-0.1,0h-2.4V29h2.5c0.8,0.1,1.6-0.5,1.7-1.3c0-0.1,0-0.2,0-0.2c0-0.7-0.5-1.4-1.2-1.4
			c-0.1,0-0.2,0-0.3,0h-1.2c-0.2,0-0.4-0.1-0.4-0.4l0,0c0-0.2,0.2-0.4,0.4-0.4c0,0,0,0,0.1,0L54.8,25.1z M47.8,25.5
			c0-0.2,0.2-0.4,0.4-0.4c0,0,0,0,0.1,0h2.1l0.5-1.1h-2.6c-0.8-0.1-1.6,0.5-1.7,1.4c0,0.1,0,0.1,0,0.2c0,0.8,0.5,1.4,1.3,1.5
			c0.1,0,0.1,0,0.2,0h1.2c0.2,0,0.4,0.1,0.4,0.4l0,0c0,0.2-0.2,0.4-0.4,0.4c0,0,0,0-0.1,0h-2.5V29h2.5c0.8,0.1,1.6-0.5,1.7-1.3
			c0-0.1,0-0.2,0-0.2c0-0.7-0.5-1.4-1.2-1.4c-0.1,0-0.2,0-0.3,0h-1.2C48,25.9,47.8,25.7,47.8,25.5L47.8,25.5z M42.2,28.9h4v-1.1
			h-2.7V27h2.7v-1.1h-2.7v-0.8h2.7V24h-4V28.9L42.2,28.9z M42,28.9l-1.6-1.8c0.8-0.2,1.4-1,1.2-1.8S40.7,24,40,24h-2.7v4.9h1.2v-1.7
			H39l1.5,1.7H42L42,28.9L42,28.9z M39.9,26.1h-1.3v-1h1.3c0.3,0,0.5,0.2,0.6,0.5c0,0,0,0,0,0.1C40.5,25.9,40.3,26.1,39.9,26.1
			L39.9,26.1z M36.8,25.7c0-0.9-0.6-1.6-1.5-1.6c-0.1,0-0.1,0-0.2,0h-2.7V29h1.2v-1.6h1.5c0.9,0.1,1.7-0.6,1.7-1.5
			C36.8,25.8,36.8,25.7,36.8,25.7L36.8,25.7z M35.5,25.7c0,0.3-0.2,0.5-0.5,0.5c0,0,0,0-0.1,0h-1.4v-1.1h1.4
			C35.2,25.1,35.5,25.3,35.5,25.7C35.5,25.6,35.5,25.6,35.5,25.7L35.5,25.7z M32.2,28.9l-2-2.5l2-2.4h-1.5l-1.1,1.5L28.4,24h-1.5
			l1.9,2.4l-1.9,2.4h1.5l1.2-1.5l1.2,1.5L32.2,28.9L32.2,28.9z M22.8,28.9h4v-1.1H24V27h2.7v-1.1H24v-0.8h2.7V24h-4L22.8,28.9
			L22.8,28.9z"/>
		<path id="Path_5219_00000136380328878212073890000012762751015154193024_" class="st0" d="M51.7,20.4v-4.9h-1.2v3l-2-3h-1.6v4.9
			h1.3v-3.2l2,3.1L51.7,20.4z M45.4,20.4h1.4l-2.1-4.9h-1.6L41,20.4h1.4l0.4-1H45L45.4,20.4L45.4,20.4z M44.6,18.3h-1.3l0.7-1.7
			L44.6,18.3z M40.6,16.6h1.3v-1.1h-1.4c-1.2-0.1-2.3,0.8-2.4,2.1c0,0.1,0,0.2,0,0.3V18c-0.1,1.2,0.7,2.3,1.9,2.4c0.1,0,0.2,0,0.4,0
			h0.1l0.5-1.1h-0.4c-0.6,0-1.2-0.5-1.2-1.1c0-0.1,0-0.2,0-0.2v-0.1c-0.1-0.6,0.4-1.2,1-1.3C40.5,16.6,40.5,16.6,40.6,16.6z
			 M36.3,20.4h1.2v-4.9h-1.2V20.4L36.3,20.4z M36.1,20.4l-1.6-1.8c0.9-0.2,1.4-1,1.3-1.8c-0.1-0.8-0.9-1.4-1.7-1.3h-2.7v4.9h1.2
			v-1.7h0.6l1.5,1.7L36.1,20.4L36.1,20.4L36.1,20.4z M34,17.6h-1.3v-1H34c0.3,0,0.5,0.2,0.6,0.5c0,0,0,0,0,0.1
			C34.6,17.3,34.4,17.6,34,17.6L34,17.6z M26.7,20.4h4v-1.1H28v-0.8h2.7v-1.1H28v-0.8h2.7v-1.1h-4V20.4L26.7,20.4z M24.7,20.4h1.2
			v-4.9h-2l-1.1,3.1l-1.1-3.1h-2v4.9h1.2v-3.6l1.3,3.6h1.1l1.3-3.6L24.7,20.4L24.7,20.4z M18.3,20.4h1.4l-2.1-4.9H16l-2.1,4.9h1.3
			l0.4-1h2.2L18.3,20.4L18.3,20.4z M17.4,18.3h-1.3l0.7-1.7L17.4,18.3L17.4,18.3z"/>
	</g>
	<g id="Group_3376_00000063607063971492788640000009871718097226628752_">
		<path id="Path_5220_00000099637213181944757430000007456337986941244061_" d="M56.6,8.7v27H12.8v-27L56.6,8.7 M57.2,8.1h-45v28.3
			h45V8.1z"/>
	</g>
</g>
<g id="Group_3329_00000130640199003346652840000004224847708215353988_" transform="translate(76)">
	<g id="Group_3327_00000047031616197244415090000005683713790215983541_">
		
			<rect id="Rectangle_17591_00000016055686888670350460000004247497518446194821_" x="12.5" y="8.4" class="st1" width="44.4" height="27.6"/>
		<path id="Path_4722_00000033336072284667812660000007970724293714737809_" d="M56.6,8.7v27H12.8v-27L56.6,8.7 M57.2,8.1h-45v28.3
			h45V8.1z"/>
	</g>
	<g id="Group_3328_00000068674556813758488150000014915301201677383563_">
		
			<rect id="Rectangle_17535_00000009551040856118869250000006672502991609258656_" x="30.5" y="15.4" class="st2" width="8.4" height="13.7"/>
		<path id="Path_3528_00000030488498493494555360000018421693605579294631_" class="st3" d="M31.4,22.2c0-2.7,1.2-5.2,3.3-6.8
			c-3.8-3-9.2-2.3-12.2,1.5s-2.3,9.2,1.5,12.2c3.1,2.5,7.6,2.5,10.7,0C32.6,27.4,31.4,24.9,31.4,22.2z"/>
		<path id="Path_3530_00000019669125273960754460000002954573588699636622_" class="st4" d="M48.7,22.2c0,4.8-3.9,8.7-8.7,8.7
			c-1.9,0-3.8-0.7-5.4-1.9c3.8-3,4.4-8.4,1.5-12.2c-0.4-0.5-0.9-1-1.5-1.5c3.8-3,9.2-2.3,12.2,1.4C48.1,18.4,48.7,20.2,48.7,22.2z"
			/>
	</g>
</g>
<g id="Group_3314_00000153682843968978708040000015607043112319712162_" transform="translate(25)">
	<g id="Group_3313_00000161616318665648085540000012707132445635033756_">
		
			<rect id="Rectangle_17585_00000008836792117349197080000009890527723781767857_" x="12.5" y="8.4" class="st1" width="44.4" height="27.6"/>
		<path id="Path_4693_00000116942719765850882630000009630242754132494264_" d="M56.6,8.7v27H12.8v-27L56.6,8.7 M57.2,8.1h-45v28.3
			h45V8.1z"/>
	</g>
	<path id="Path_4021_00000043415158506280815400000010305556460014582690_" class="st5" d="M30.1,16.9l-4.6,10.9h-3l-2.3-8.7
		c0-0.4-0.3-0.8-0.7-1c-0.9-0.4-1.8-0.7-2.8-0.9l0.1-0.3h4.8c0.7,0,1.2,0.5,1.3,1.1l1.2,6.3l2.9-7.5L30.1,16.9L30.1,16.9L30.1,16.9z
		 M34.1,16.9l-2.3,10.9H29l2.3-10.9H34.1z M41.8,24.3c0-2.9-4-3-4-4.3c0-0.4,0.4-0.8,1.2-0.9c1-0.1,1.9,0.1,2.8,0.5l0.5-2.3
		c-0.8-0.3-1.7-0.5-2.6-0.5c-2.8,0-4.8,1.5-4.8,3.6c0,1.6,1.4,2.4,2.5,3c1.1,0.5,1.5,0.9,1.5,1.4c0,0.7-0.9,1.1-1.7,1.1
		c-1,0-2-0.2-2.9-0.7l-0.5,2.4c1,0.4,2.1,0.6,3.2,0.6C39.9,28,41.8,26.6,41.8,24.3L41.8,24.3z M49.2,27.9h2.6L49.5,17h-2.4
		c-0.5,0-1,0.3-1.2,0.8l-4.2,10.1h3l0.5-1.7h3.6L49.2,27.9z M46,24l1.5-4.1l0.9,4.1H46z"/>
</g>
<g id="Group_3336" transform="translate(280 -0.143)">
	<g id="Group_3335">
		<rect id="Rectangle_17594" x="-38.5" y="8.4" class="st6" width="44.4" height="27.6"/>
		<path id="Path_4732" d="M5.6,8.7v27h-43.7v-27L5.6,8.7 M6.2,8.1h-45v28.3h45C6.2,36.4,6.2,8.1,6.2,8.1z"/>
	</g>
	<path id="Path_4733" class="st7" d="M2.1,24.3c-0.6,0-1.1,0.5-1.1,1.1l0,0l0,0c0,0.6,0.5,1.1,1.1,1.1l0,0l0,0
		c0.6,0,1.1-0.5,1.1-1.2C3.1,24.8,2.7,24.3,2.1,24.3z M-1.6,23.4c0-0.9-0.6-1.6-1.5-1.7c-0.9,0-1.6,0.6-1.7,1.5
		c0,0.9,0.6,1.6,1.5,1.7c0,0,0,0,0.1,0C-2.3,25-1.6,24.3-1.6,23.4C-1.6,23.5-1.6,23.4-1.6,23.4z M-1.6,20.5h1.8v6h-1.8v-0.4
		c-0.5,0.4-1.1,0.5-1.7,0.5c-1.7,0-3.1-1.5-3.1-3.2s1.4-3.1,3.1-3.1c0.6,0,1.2,0.2,1.7,0.5C-1.6,20.8-1.6,20.5-1.6,20.5z
		 M-15.7,21.2v-0.8h-1.8v6h1.8v-2.8c0-0.9,1-1.4,1.7-1.4l0,0v-1.7C-14.7,20.5-15.3,20.7-15.7,21.2z M-20.2,23.4
		c0-0.9-0.6-1.6-1.5-1.7c-0.9,0-1.6,0.6-1.7,1.5c0,0.9,0.6,1.6,1.5,1.7c0,0,0,0,0.1,0C-21,25-20.2,24.3-20.2,23.4L-20.2,23.4z
		 M-20.2,20.5h1.8v6h-1.8v-0.4c-0.5,0.4-1.1,0.5-1.7,0.5c-1.7,0-3.1-1.5-3.1-3.2s1.4-3.1,3.1-3.1c0.6,0,1.2,0.2,1.7,0.5V20.5z
		 M-9.6,20.3c-0.7,0-1.4,0.3-1.8,0.8v-0.7h-1.8v6h1.8v-3.1c-0.1-0.7,0.5-1.3,1.1-1.3c0.1,0,0.1,0,0.2,0c0.8,0,1.2,0.5,1.2,1.3v3.1
		h1.8v-3.8c0-1.3-1-2.3-2.3-2.3C-9.5,20.3-9.5,20.3-9.6,20.3L-9.6,20.3z M-27.7,26.4h1.9v-8.6h-1.9V26.4z M-35.8,26.4h2v-8.6h-2
		V26.4z M-28.9,17.8c0,1.8-0.7,3.6-2,4.9l2.7,3.7h-2.4l-2.9-4l0.8-0.6c1.3-0.9,2-2.4,2-4H-28.9z"/>
</g>
<g id="Group_3324_00000076567977264668019930000014089028371348987526_" transform="translate(178 -0.133)">
	<g id="Group_3321_00000003074481141183480820000008634667140329531306_">
		
			<rect id="Rectangle_17589_00000170238618499954718090000015602028202300465072_" x="12.5" y="8.4" class="st1" width="44.4" height="27.6"/>
		<path id="Path_4705_00000039823737028072164550000005735606370229765776_" d="M56.6,8.7v27H12.8v-27L56.6,8.7 M57.2,8h-45v28.3h45
			V8z"/>
	</g>
	<g id="Group_3322_00000057108288331061048260000001866481841376894595_">
		<path id="Path_4706_00000121976600201965897810000001300744450218479789_" class="st8" d="M21.9,24h-2.7c-0.2,0-0.3,0.1-0.4,0.3
			l-1.1,6.8c0,0.1,0.1,0.2,0.2,0.3h1.3c0.2,0,0.3-0.1,0.4-0.3l0.3-1.8c0-0.2,0.2-0.3,0.4-0.3h0.8c1.5,0.2,2.8-0.9,3-2.4
			c0-0.1,0-0.1,0-0.2c0.1-0.6,0-1.2-0.3-1.7C23.3,24.2,22.6,24,21.9,24z M22.2,26.5c-0.1,0.9-0.9,0.9-1.6,0.9h-0.4l0.3-1.8
			c0-0.1,0.1-0.2,0.2-0.2h0.2c0.5,0,0.9,0,1.2,0.3C22.2,26,22.2,26.3,22.2,26.5z M29.7,26.5h-1.3c-0.1,0-0.2,0.1-0.2,0.2V27
			l-0.1-0.1c-0.4-0.4-0.9-0.6-1.5-0.5c-1.4,0-2.6,1.1-2.8,2.5c-0.1,0.7,0,1.4,0.5,1.9c0.4,0.4,1,0.7,1.6,0.6c0.7,0,1.3-0.3,1.7-0.7
			L27.5,31c0,0.1,0.1,0.2,0.2,0.3h1.2c0.2,0,0.3-0.1,0.4-0.3l0.7-4.3C30,26.6,29.9,26.5,29.7,26.5C29.8,26.5,29.8,26.5,29.7,26.5z
			 M28,28.9c-0.1,0.7-0.7,1.2-1.4,1.2c-0.3,0-0.6-0.1-0.9-0.3c-0.2-0.3-0.3-0.6-0.2-0.9c0.1-0.7,0.7-1.2,1.4-1.2
			c0.3,0,0.6,0.1,0.8,0.3C28,28.3,28.1,28.6,28,28.9z M36.5,26.5h-1.3c-0.1,0-0.2,0.1-0.3,0.2l-1.7,2.5l-0.7-2.5
			c-0.1-0.1-0.2-0.2-0.3-0.3h-1.3c-0.1,0-0.2,0.1-0.2,0.2l0,0v0.1l1.4,4.1l-1.3,1.9c-0.1,0.1,0,0.2,0.1,0.3H31h1.3
			c0.1,0,0.2-0.1,0.3-0.1l4.2-6.1C36.7,26.7,36.7,26.6,36.5,26.5L36.5,26.5L36.5,26.5z"/>
		<path id="Path_4707_00000054258567568255566170000002850136881408892847_" class="st9" d="M40.7,24h-2.6c-0.2,0-0.3,0.1-0.4,0.3
			l-1.1,6.8c0,0.1,0.1,0.2,0.2,0.3h1.4c0.1,0,0.2-0.1,0.3-0.2l0.3-1.9c0-0.2,0.2-0.3,0.4-0.3H40c1.5,0.2,2.8-0.9,3-2.4v-0.1
			c0.1-0.6,0-1.2-0.3-1.7C42.1,24.2,41.4,24,40.7,24z M41,26.5c-0.1,0.9-0.9,0.9-1.6,0.9H39l0.3-1.8c0-0.1,0.1-0.2,0.2-0.2h0.2
			c0.5,0,0.9,0,1.2,0.3C41,25.9,41,26.2,41,26.5z M48.6,26.5h-1.3c-0.1,0-0.2,0.1-0.2,0.2L47,27l-0.1-0.1c-0.4-0.4-0.9-0.6-1.5-0.5
			c-1.4,0-2.6,1.1-2.8,2.5c-0.1,0.7,0,1.4,0.5,1.9c0.4,0.4,1,0.7,1.6,0.6c0.7,0,1.3-0.3,1.7-0.7L46.3,31c0,0.1,0.1,0.2,0.2,0.3h1.2
			c0.2,0,0.3-0.1,0.4-0.3l0.7-4.3C48.8,26.6,48.7,26.5,48.6,26.5L48.6,26.5z M46.8,28.9c-0.1,0.7-0.7,1.2-1.4,1.2
			c-0.5,0.1-1-0.3-1.1-0.9c0-0.1,0-0.2,0-0.4c0.1-0.7,0.7-1.2,1.4-1.2c0.3,0,0.6,0.1,0.8,0.3C46.8,28.3,46.9,28.6,46.8,28.9z
			 M50,24.2l-1.1,6.9c0,0.1,0.1,0.2,0.2,0.3h1.1c0.2,0,0.3-0.1,0.4-0.3l1.1-6.8c0-0.1-0.1-0.2-0.2-0.3h-1.3C50.1,24,50,24.1,50,24.2
			L50,24.2z"/>
	</g>
	<g id="Group_3323_00000053540945955239759570000005268168035458579375_">
		<path id="Path_4708_00000121958371703452938360000014603817473119256219_" class="st8" d="M32.8,21.8l0.2-1.2h-2.4l1.3-8.8
			c0-0.1,0.1-0.1,0.1-0.1h3.3c0.8-0.1,1.6,0.1,2.3,0.7c0.2,0.2,0.3,0.4,0.4,0.7c0.1,0.3,0.1,0.6,0,0.9v0.3l0.2,0.1
			c0.1,0.1,0.3,0.2,0.4,0.3c0.2,0.2,0.3,0.4,0.3,0.7c0.1,0.3,0,0.7-0.1,1c-0.1,0.4-0.2,0.8-0.4,1.2c-0.2,0.3-0.4,0.5-0.7,0.7
			s-0.6,0.3-0.9,0.4c-0.4,0.1-0.7,0.1-1.1,0.1h-0.3c-0.4,0-0.7,0.3-0.8,0.7v0.1l-0.3,2.1v0.1c0,0,0,0,0,0.1l0,0
			C34.4,21.8,32.8,21.8,32.8,21.8z"/>
		<path id="Path_4709_00000131344973733901056380000018107828004826912188_" class="st9" d="M38.4,14.2c0,0.1,0,0.1,0,0.2
			c-0.4,2.3-1.9,3-3.9,3h-1c-0.2,0-0.4,0.2-0.5,0.4L32.5,21l-0.1,0.9c0,0.1,0.1,0.3,0.2,0.3h1.8c0.2,0,0.4-0.1,0.4-0.3v-0.1l0.3-2.1
			v-0.1c0-0.2,0.2-0.3,0.4-0.3h0.3c1.7,0.2,3.2-1,3.4-2.7c0.2-0.7,0.1-1.4-0.3-2C38.7,14.4,38.6,14.3,38.4,14.2z"/>
		<path id="Path_4710_00000044169049633747014450000002566969372282067389_" class="st10" d="M37.9,14c-0.1,0-0.3-0.1-0.4-0.1
			c-0.3,0-0.6-0.1-0.9-0.1H34c-0.2,0-0.4,0.1-0.4,0.3l-0.5,3.5v0.1c0-0.2,0.2-0.4,0.5-0.4h1c1.9,0,3.4-0.8,3.9-3c0-0.1,0-0.1,0-0.2
			C38.3,14.1,38.1,14.1,37.9,14C38,14,38,14,37.9,14z"/>
		<path id="Path_4711_00000141420404772889796490000005100591639968734632_" class="st8" d="M33.6,14.2c0-0.2,0.2-0.3,0.4-0.3h2.6
			c0.3,0,0.6,0,0.9,0.1c0.2,0,0.4,0.1,0.5,0.1c0.1,0.1,0.3,0.1,0.4,0.1c0.2-0.7,0-1.4-0.5-1.9c-0.7-0.6-1.6-0.9-2.5-0.8h-3.3
			c-0.2,0-0.4,0.2-0.5,0.4l-1.4,8.8c0,0.1,0.1,0.3,0.2,0.3l0,0h2.1l0.5-3.3C33.1,17.7,33.6,14.2,33.6,14.2z"/>
	</g>
</g>
<g id="Group_3312_00000029742512218103652650000005279803083791306641_" transform="translate(178 34.143)">
	<g id="Group_3299_00000116225358295281489720000006887561866374531216_">
		
			<rect id="Rectangle_17584_00000166639639119276383840000005143462613956637856_" x="115.1" y="-26.2" class="st11" width="44.4" height="27.6"/>
		<path id="Path_4684_00000173159481387090117380000010954675669864877722_" d="M159.2-25.9v27h-43.8v-27H159.2 M159.8-26.5h-45V1.8
			h45V-26.5z"/>
	</g>
	<g id="Group_3300_00000010279700761120661420000011562786801792119189_">
		<path id="Path_4685_00000114756823749205559070000010240433894519913396_" d="M143-21l-1.9-1.1l-1.8-1c-0.9-0.5-2.1-0.2-2.6,0.7
			c-0.2,0.3-0.2,0.6-0.2,0.9v0.2c0,0.1,0.1,0.3,0.2,0.3l0.9,0.5c0.2,0.1,0.4,0,0.5-0.1c0-0.1,0.1-0.1,0-0.2v-0.6
			c0-0.2,0.2-0.4,0.4-0.4c0.1,0,0.1,0,0.2,0.1l1.7,1l1.7,1c0.2,0.1,0.2,0.4,0.1,0.5l-0.1,0.1l-1.7,1l-1.7,1c-0.2,0.1-0.4,0-0.5-0.1
			c0-0.1-0.1-0.1-0.1-0.2v-0.3c0-1-0.9-1.9-1.9-1.9c-0.3,0-0.6,0.1-0.9,0.2l-2,1.1l-1.9,1.1c-0.9,0.5-1.2,1.7-0.7,2.6
			c0.2,0.3,0.4,0.5,0.7,0.7l1.9,1.1l1.9,1.1c0.9,0.5,2.1,0.2,2.6-0.7c0.2-0.3,0.2-0.6,0.2-0.9v-0.2c0-0.1-0.1-0.3-0.2-0.3l-0.8-0.6
			c-0.2-0.1-0.4,0-0.5,0.1c0,0.1-0.1,0.1,0,0.2v0.6c0,0.2-0.2,0.4-0.4,0.4c-0.1,0-0.1,0-0.2-0.1l-1.7-1l-1.7-1
			c-0.2-0.1-0.2-0.4-0.1-0.5l0.1-0.1l1.7-1l1.7-1c0.2-0.1,0.4,0,0.5,0.1c0,0.1,0.1,0.1,0.1,0.2v0.3c0,1,0.9,1.9,1.9,1.9
			c0.3,0,0.6-0.1,0.9-0.2l1.9-1.1l1.9-1.1c0.9-0.6,1.2-1.8,0.6-2.7C143.5-20.6,143.3-20.8,143-21z"/>
	</g>
	<g id="Group_3311_00000137822858294609277210000010203467411446513036_">
		<g id="Group_3302_00000016771355859949754900000003199467219647834038_">
			<g id="Group_3301_00000127722929017004683070000007504443205306733972_">
				<path id="Path_4686_00000065070919012385592000000015277258951707478669_" d="M156-8.4l-3.4,7h-1.4l1.3-2.6l-2-4.3h1.4l1.3,2.9
					l1.4-2.9L156-8.4L156-8.4z"/>
			</g>
		</g>
		<g id="Group_3310_00000002375509921567026000000014277721567695112125_">
			<g id="Group_3309_00000092444631007926678260000006102473881497307575_">
				<g id="Group_3303_00000000913852108691374850000012180414191333151889_">
					<path id="Path_4687_00000112611553795979008020000014968832422002992291_" d="M122.4-5.9c0-0.7-0.5-1.4-1.3-1.4H121
						c-0.8,0-1.4,0.6-1.4,1.4s0.6,1.4,1.4,1.4S122.4-5.1,122.4-5.9L122.4-5.9 M122.4-3.4V-4c-0.4,0.5-0.9,0.7-1.5,0.7
						c-1.3,0-2.4-1.1-2.4-2.4v-0.1c0-1.4,1-2.5,2.4-2.5c0,0,0,0,0.1,0c0.6,0,1.2,0.3,1.5,0.7v-0.6h1.2v4.8L122.4-3.4L122.4-3.4z"/>
				</g>
				<g id="Group_3304_00000119824721480053004820000000033328742714533274_">
					<path id="Path_4688_00000000923815627224754390000006664353632208695442_" d="M129.5-4.5c-0.4,0-0.5-0.1-0.5-0.6v-2.2h0.8v-1.1
						H129v-1.2h-1.3v1.2h-1.6v-0.5c0-0.4,0.1-0.6,0.6-0.6h0.3v-1h-0.6c-1,0-1.5,0.3-1.5,1.4v0.7h-0.7v1.1h0.7v3.9h1.3v-3.9h1.6v2.4
						c0,1,0.4,1.4,1.4,1.4h0.6v-1.1h-0.3V-4.5z"/>
				</g>
				<g id="Group_3305_00000054984881359985762520000018245474855988721084_">
					<path id="Path_4689_00000083089446902681366840000015939873297926151552_" d="M134-6.4c-0.1-0.6-0.6-1-1.2-1
						c-0.6,0-1.1,0.4-1.3,1H134z M131.5-5.6c0,0.7,0.6,1.2,1.3,1.1c0.5,0,0.9-0.2,1.2-0.6h1.3c-0.5,1.3-2,2-3.3,1.5
						c-1-0.4-1.7-1.3-1.7-2.4c0-1.4,1-2.5,2.4-2.6h0.1c1.4,0,2.5,1,2.5,2.4c0,0.1,0,0.1,0,0.2s0,0.2,0,0.3L131.5-5.6z"/>
				</g>
				<g id="Group_3306_00000092453734371666102500000007813673937700265091_">
					<path id="Path_4690_00000133525231061133499330000014309032589480676525_" d="M143.2-5.9c0-0.7-0.7-1.3-1.4-1.3
						s-1.3,0.7-1.3,1.4s0.6,1.3,1.3,1.3C142.6-4.5,143.2-5.1,143.2-5.9L143.2-5.9 M139.3-1.4v-7h1.2v0.6c0.4-0.5,0.9-0.7,1.5-0.7
						c1.3,0,2.4,1.1,2.4,2.5c0,0,0,0,0,0.1c0,1.4-1,2.5-2.4,2.5l0,0c-0.6,0-1.1-0.2-1.5-0.7v2.7C140.5-1.4,139.3-1.4,139.3-1.4z"/>
				</g>
				<g id="Group_3307_00000082341347989089509530000003878386482958521263_">
					<path id="Path_4691_00000078039353859841934220000016567771992309752462_" d="M148.8-5.9c0-0.7-0.5-1.4-1.3-1.4h-0.1
						c-0.8,0-1.4,0.6-1.4,1.4s0.6,1.4,1.4,1.4S148.8-5.1,148.8-5.9L148.8-5.9 M148.8-3.4V-4c-0.4,0.5-1,0.7-1.5,0.7
						c-1.3,0-2.4-1.1-2.4-2.4v-0.1c0-1.4,1-2.5,2.4-2.5c0,0,0,0,0.1,0c0.6,0,1.2,0.3,1.5,0.7v-0.6h1.2v4.8L148.8-3.4L148.8-3.4z"/>
				</g>
				<g id="Group_3308_00000118359489428377434880000013756376673114293941_">
					<path id="Path_4692_00000023279025669807316430000000594145987578606986_" d="M137.1-7.9c0.2-0.4,0.6-0.6,1.1-0.6
						c0.2,0,0.4,0,0.5,0.1v1.3c-0.3-0.2-0.6-0.2-0.9-0.2c-0.4,0.1-0.7,0.5-0.7,1v2.9h-1.3v-5h1.2L137.1-7.9z"/>
				</g>
			</g>
		</g>
	</g>
</g>
</svg>
